<svg xmlns="http://www.w3.org/2000/svg" version="1.1" xmlns:xlink="http://www.w3.org/1999/xlink"
    xmlns:svgjs="http://svgjs.com/svgjs" width="1000" height="1000">
    <rect width="1000" height="1000" rx="250" ry="250" fill="#555555"></rect>
    <g transform="matrix(25,0,0,25,100.00000286102295,100)">
        <svg xmlns="http://www.w3.org/2000/svg" version="1.1"
            xmlns:xlink="http://www.w3.org/1999/xlink" xmlns:svgjs="http://svgjs.com/svgjs"
            width="32" height="32">
            <svg xmlns="http://www.w3.org/2000/svg" version="1.1" width="32" height="32">
                <g fill="#39e991">
                    <g xmlns="http://www.w3.org/2000/svg" display="none">
                        <rect x="-233.895" y="-85.339" display="inline" fill="#39e991"
                            width="435.561" height="207"></rect>
                    </g>
                    <g xmlns="http://www.w3.org/2000/svg" display="none">
                        <g display="inline">
                            <g>
                                <path
                                    d="M16,1c7.281,0,13.205,5.774,13.205,12.871c0,4.104-1.952,7.869-5.354,10.33l-0.414,0.299v0.511v4.938l-4.158-3.248     l-0.355-0.277l-0.443,0.082c-0.842,0.156-1.677,0.235-2.481,0.235c-7.281,0-13.205-5.774-13.205-12.871C2.795,6.774,8.719,1,16,1      M16,0C8.155,0,1.795,6.21,1.795,13.871S8.155,27.742,16,27.742c0.911,0,1.8-0.092,2.664-0.252L24.437,32v-6.988     c3.493-2.527,5.768-6.569,5.768-11.141C30.205,6.21,23.845,0,16,0L16,0z"></path>
                            </g>
                        </g>
                        <g display="inline">
                            <line fill="none" stroke="#39e991" strokemiterlimit="10" x1="3.141"
                                y1="8.49" x2="11.297" y2="8.49"></line>
                            <line fill="none" stroke="#39e991" strokemiterlimit="10" x1="2.702"
                                y1="15.837" x2="17.641" y2="15.837"></line>
                            <line fill="none" stroke="#39e991" strokemiterlimit="10" x1="3.565"
                                y1="19.51" x2="14.922" y2="19.51"></line>
                        </g>
                    </g>
                    <g xmlns="http://www.w3.org/2000/svg" display="none">
                        <g display="inline">
                            <g>
                                <path
                                    d="M16,1c7.281,0,13.205,5.774,13.205,12.871c0,4.104-1.952,7.869-5.354,10.33l-0.414,0.299v0.511v4.938l-4.158-3.248     l-0.355-0.277l-0.443,0.082c-0.842,0.156-1.677,0.235-2.481,0.235c-7.281,0-13.205-5.774-13.205-12.871C2.795,6.774,8.719,1,16,1      M16,0C8.155,0,1.795,6.21,1.795,13.871S8.155,27.742,16,27.742c0.911,0,1.8-0.092,2.664-0.252L24.437,32v-6.988     c3.493-2.527,5.768-6.569,5.768-11.141C30.205,6.21,23.845,0,16,0L16,0z"></path>
                            </g>
                        </g>
                        <g display="inline">
                            <line fill="none" stroke="#39e991" strokemiterlimit="10" x1="3.141"
                                y1="8.49" x2="11.297" y2="8.49"></line>
                            <line fill="none" stroke="#39e991" strokemiterlimit="10" x1="2.702"
                                y1="15.837" x2="17.641" y2="15.837"></line>
                            <line fill="none" stroke="#39e991" strokemiterlimit="10" x1="3.565"
                                y1="19.51" x2="14.922" y2="19.51"></line>
                        </g>
                    </g>
                    <g xmlns="http://www.w3.org/2000/svg">
                        <g>
                            <path
                                d="M16,27.742c0.911,0,1.8-0.092,2.664-0.252L24.437,32v-6.988c3.494-2.527,5.768-6.569,5.768-11.141    C30.205,6.21,23.845,0,16,0C8.155,0,1.795,6.21,1.795,13.871S8.155,27.742,16,27.742z M4.667,9.49h6.631v-2H5.725    C7.896,4.194,11.686,2,16,2c6.73,0,12.205,5.325,12.205,11.871c0,3.779-1.801,7.249-4.94,9.52l-0.828,0.599v1.022V27.9    l-2.542-1.986l-0.71-0.555l-0.886,0.164c-0.782,0.145-1.556,0.219-2.299,0.219c-3.992,0-7.531-1.882-9.76-4.772h8.912v-2H4.994    c-0.334-0.679-0.601-1.391-0.799-2.133h13.446v-2H3.845c-0.027-0.319-0.05-0.64-0.05-0.966C3.795,12.323,4.11,10.847,4.667,9.49z"></path>
                        </g>
                    </g>
                    <g xmlns="http://www.w3.org/2000/svg" display="none">
                        <g display="inline">
                            <g>
                                <path
                                    d="M16,0.5c7.557,0,13.705,5.998,13.705,13.371c0,4.266-2.027,8.179-5.561,10.736l-0.207,0.15v0.255v5.963l-4.966-3.879     l-0.177-0.139l-0.221,0.041C17.7,27.16,16.834,27.242,16,27.242c-7.557,0-13.705-5.998-13.705-13.371     C2.295,6.498,8.443,0.5,16,0.5 M16,0C8.155,0,1.795,6.21,1.795,13.871S8.155,27.742,16,27.742c0.911,0,1.8-0.092,2.664-0.252     L24.437,32v-6.988c3.493-2.527,5.768-6.569,5.768-11.141C30.205,6.21,23.845,0,16,0L16,0z"></path>
                            </g>
                        </g>
                        <g display="inline">
                            <line fill="none" stroke="#39e991" strokewidth="0.5"
                                strokemiterlimit="10" x1="3.141" y1="8.49" x2="11.297" y2="8.49"></line>
                            <line fill="none" stroke="#39e991" strokewidth="0.5"
                                strokemiterlimit="10" x1="2.702" y1="15.837" x2="17.641" y2="15.837"></line>
                            <line fill="none" stroke="#39e991" strokewidth="0.5"
                                strokemiterlimit="10" x1="3.565" y1="19.51" x2="14.922" y2="19.51"></line>
                        </g>
                    </g>
                </g>
            </svg>
        </svg>
    </g>
    <style>
        @media (prefers-color-scheme: light) { rect { fill: #262833 } path { fill: #11111; } }
        @media (prefers-color-scheme: dark) { rect { fill: #39e991 } path { fill: #262833; } }
    </style>
</svg>